# xmcd
#
# Track frame offsets:
#	150
#	4283
#	27130
#	55629
#	82656
#	117465
#	132705
#	158063
#	174860
#
# Disc length: 2548 seconds
# Revision: 0
# Processed by: cddbd v1.5.2PL0 Copyright (c) Steve Scherf et al.
# Submitted via: dBpowerAMP V12.0
#
DISCID=6409f209
DTITLE=Popa Chubby - Electric Chubbyland CD1
DYEAR=2006
DGENRE=Blues
TTITLE0=Intro
TTITLE1=Spanish Castle Magic
TTITLE2=Foxy Lady
TTITLE3=Catfish Blues
TTITLE4=The Wind Cries Mary
TTITLE5=Purple Haze
TTITLE6=Can You See Me
TTITLE7=Remember
TTITLE8=3Rd Stone From the Sun
EXTD=
EXTT0=
EXTT1=
EXTT2=
EXTT3=
EXTT4=
EXTT5=
EXTT6=
EXTT7=
EXTT8=
PLAYORDER=
